<?xml version="1.0" encoding="iso-8859-1"?>
<!-- Uploaded to: SVG Repo, www.svgrepo.com, Generator: SVG Repo Mixer Tools -->
<svg height="800px" width="800px" version="1.1" id="Layer_1" xmlns="http://www.w3.org/2000/svg" xmlns:xlink="http://www.w3.org/1999/xlink" 
	 viewBox="0 0 512 512" xml:space="preserve">
<path style="fill:#F95428;" d="M294.996,32.6c0,0,88.549,46.74,79.941,119.303c-2.63,22.158-16.107,37.219-33.627,45.522
	c-4.967,2.362-10.641-1.729-9.898-7.183c0.304-2.277,0.487-4.797,0.487-7.585c0-22.146-25.543-27.041-27.065-57.807
	c-33.652,22.694-27.966,49.369-19.383,65.769c2.934,5.588-2.471,11.956-8.425,9.85c-20.831-7.378-36.829-23.315-37.377-47.336
	C238.419,99.014,294.996,112.553,294.996,32.6z"/>
<path style="fill:#31AF0E;" d="M307.585,252.589h135.057c0,34.699-13.076,66.329-34.577,90.241l-56.711,31.351
	c-8.425,4.663-18.165,6.319-27.649,4.712l-106.677-18.068c-11.578-1.96-19.699-12.504-18.64-24.204
	c1.071-11.749,10.945-20.454,22.365-20.454c1.193,0,2.411,0.097,3.64,0.292l60.4,9.813c11.956,1.948,23.571-5.016,27.503-16.473
	c0.925-2.691,1.351-5.406,1.351-8.084c0-11.469-8.023-21.964-19.979-24.362L178.518,254.27c-1.985-0.402-3.981-0.731-5.978-0.998
	c-0.012-0.231-0.012-0.438-0.012-0.682h135.045H307.585z"/>
<path style="fill:#F7B239;" d="M220.753,316.167c-11.42,0-21.294,8.705-22.365,20.454c-1.059,11.7,7.061,22.244,18.64,24.204
	l106.677,18.068c9.484,1.607,19.224-0.049,27.649-4.712l56.711-31.351l51.841-28.66c4.432-2.447,9.229-3.616,13.977-3.616
	c9.582,0,18.932,4.76,24.423,13.38c8.632,13.514,4.626,31.472-8.936,40.031l-140.292,88.658
	c-14.099,8.912-30.937,12.443-47.434,9.959l-165.689-25.032c-8.535-1.291-17.24,0.621-24.435,5.357l-55.481,36.488L9.128,363.722
	l32.97-20.284c11.895-7.317,22.889-15.937,32.787-25.665c9.91-9.74,18.713-20.588,26.237-32.349
	c13.222-20.685,36.135-33.42,60.68-32.97c3.579,0.073,7.171,0.341,10.738,0.816c1.997,0.268,3.993,0.597,5.978,0.998l115.151,23.084
	c11.956,2.398,19.979,12.893,19.979,24.362c0,2.678-0.426,5.393-1.351,8.084c-3.932,11.457-15.547,18.421-27.503,16.473l-60.4-9.813
	C223.164,316.264,221.947,316.167,220.753,316.167z"/>
<g>
	<path style="fill:#333333;" d="M506.009,319.02c-10.783-16.901-32.976-22.543-50.522-12.842l-18.622,10.295
		c9.735-19.689,14.905-41.501,14.905-63.878c0-5.043-4.087-9.131-9.131-9.131H316.71v-18.966c0-5.043-4.087-9.131-9.131-9.131
		s-9.131,4.088-9.131,9.131v18.966c0,0-133.791-0.084-136.479-0.133c-27.313-0.519-53.564,13.744-68.543,37.173
		c-14.224,22.249-33.63,41.324-56.119,55.165l-32.96,20.284c-4.294,2.642-5.635,8.267-2.991,12.562
		c2.643,4.295,8.268,5.633,12.562,2.991l32.96-20.284c24.821-15.275,46.238-36.326,61.935-60.881
		c11.387-17.812,31.139-28.761,51.756-28.761c0.354,0,0.71,0.002,1.064,0.01c5.053,0.093,10.128,0.644,15.088,1.638l115.151,23.084
		c4.512,0.905,8.258,3.6,10.55,7.591c2.291,3.991,2.731,8.587,1.238,12.94c-2.495,7.272-9.815,11.653-17.403,10.421l-60.401-9.815
		c-8.627-1.403-17.539,0.866-24.446,6.223c-6.908,5.357-11.323,13.423-12.112,22.129c-1.479,16.34,10.032,31.286,26.207,34.025
		l106.678,18.07c11.472,1.944,23.402-0.088,33.586-5.719l108.554-60.017c9.13-5.047,20.679-2.112,26.291,6.683
		c2.856,4.475,3.79,9.794,2.633,14.974c-1.157,5.18-4.265,9.595-8.751,12.432l-140.295,88.661
		c-12.243,7.736-26.871,10.807-41.193,8.643l-165.695-25.033c-10.771-1.627-21.713,0.773-30.815,6.758l-55.484,36.49
		c-4.214,2.771-5.383,8.432-2.613,12.646c1.754,2.668,4.668,4.115,7.637,4.115c1.722,0,3.464-0.486,5.009-1.504l55.484-36.488
		c5.333-3.505,11.742-4.914,18.052-3.959l165.695,25.033c18.659,2.817,37.723-1.181,53.677-11.263l140.295-88.661
		c8.624-5.45,14.597-13.934,16.818-23.89C513.295,337.84,511.496,327.62,506.009,319.02z M346.932,366.194
		c-6.582,3.639-14.291,4.949-21.699,3.695l-106.677-18.07c-6.833-1.158-11.694-7.471-11.069-14.371
		c0.337-3.73,2.155-7.051,5.115-9.347c2.96-2.296,6.623-3.23,10.324-2.629l60.401,9.815c16.397,2.666,32.214-6.805,37.606-22.519
		c3.181-9.27,2.207-19.46-2.672-27.96c-4.88-8.498-13.189-14.477-22.798-16.403l-33.319-6.679c0,0,45.431,0,45.436,0
		c0.005,0,0.007,0,0.012,0h125.587c-1.975,27.323-12.795,53.224-30.957,73.901L346.932,366.194z"/>
	<path style="fill:#333333;" d="M273.982,209.076c1.768,0.626,3.583,0.929,5.376,0.929c4.545,0,8.951-1.95,12.07-5.549
		c4.387-5.056,5.215-12.151,2.115-18.07c-8.831-16.87-7.036-31.885,5.301-44.786c3.543,9.96,9.406,16.898,14.433,22.849
		c6.056,7.166,9.482,11.544,9.482,18.205c0,2.251-0.135,4.389-0.402,6.354c-0.793,5.834,1.675,11.626,6.442,15.112
		c4.787,3.5,11.083,4.098,16.424,1.56c22.229-10.552,36.001-29.266,38.782-52.697c3.866-32.577-9.761-65.233-39.402-94.444
		c-21.77-21.452-44.396-33.508-45.348-34.011c-2.829-1.493-6.234-1.396-8.978,0.256c-2.741,1.652-4.416,4.619-4.416,7.82
		c0,39.69-14.788,53.528-29.09,66.911c-13.228,12.378-26.907,25.177-26.254,53.829C231.107,179.191,246.949,199.505,273.982,209.076
		z M269.252,112.849c13.68-12.801,30.306-28.359,34.085-64.39c22.894,15.437,68.421,52.769,62.534,102.371
		c-2.327,19.615-14.211,30.577-25.005,36.568c0.106-1.545,0.158-3.129,0.158-4.743c0-13.668-7.329-22.341-13.795-29.993
		c-6.488-7.678-12.616-14.928-13.273-28.264c-0.163-3.292-2.087-6.24-5.034-7.715c-2.949-1.476-6.461-1.247-9.192,0.595
		c-27.881,18.803-36.723,45.006-24.78,72.535c-22.126-9.936-25.95-27.11-26.173-36.884
		C248.311,132.443,257.096,124.224,269.252,112.849z"/>
</g>
</svg>